<svg width="14" height="10" viewBox="0 0 14 10" fill="none" xmlns="http://www.w3.org/2000/svg">
<path d="M2.20001 0.200012C1.31635 0.200012 0.600006 0.916357 0.600006 1.80001V2.60001H13.4V1.80001C13.4 0.916357 12.6837 0.200012 11.8 0.200012H2.20001Z" fill="#5A607D"/>
<path fill-rule="evenodd" clip-rule="evenodd" d="M13.4 4.20001H0.600006V8.20001C0.600006 9.08367 1.31635 9.80001 2.20001 9.80001H11.8C12.6837 9.80001 13.4 9.08367 13.4 8.20001V4.20001ZM2.20001 7.40001C2.20001 6.95818 2.55818 6.60001 3.00001 6.60001H3.8C4.24183 6.60001 4.6 6.95818 4.6 7.40001C4.6 7.84184 4.24183 8.20001 3.8 8.20001H3.00001C2.55818 8.20001 2.20001 7.84184 2.20001 7.40001ZM6.2 6.60001C5.75818 6.60001 5.4 6.95818 5.4 7.40001C5.4 7.84184 5.75818 8.20001 6.2 8.20001H7C7.44183 8.20001 7.8 7.84184 7.8 7.40001C7.8 6.95818 7.44183 6.60001 7 6.60001H6.2Z" fill="#5A607D"/>
</svg>
